<svg width="32" height="32" version="1.1" xmlns="http://www.w3.org/2000/svg" desc="Created with imagetracer.js version 1.2.6" ><path fill="rgb(254,253,252)" stroke="rgb(254,253,252)" stroke-width="1" opacity="1" d="M 13.5 16 L 17.5 17 L 19 16.5 L 18.5 18 Q 20.8 17.3 20 19.5 L 17.5 18 Q 13.3 17.3 12.5 20 L 12 18 L 14 17.5 L 13.5 16 Z " /><path fill="rgb(255,255,255)" stroke="rgb(255,255,255)" stroke-width="1" opacity="1" d="M 0 0 L 32 0 L 32 32 L 0 32 L 0 0 Z M 13 7 L 9 9 L 7 13 L 7 20 L 13 25 L 22 24 L 25 20 L 25 13 L 20 7 L 13 7 Z " /><path fill="rgb(255,255,255)" stroke="rgb(255,255,255)" stroke-width="1" opacity="1" d="M 14.5 16 Q 18.3 15.3 19 17.5 L 17.5 17 L 13.5 18 L 14.5 16 Z " /><path fill="rgb(255,255,255)" stroke="rgb(255,255,255)" stroke-width="1" opacity="1" d="M 13 20 L 19 20.5 L 14.5 23 L 13 20 Z " /><path fill="rgb(254,113,21)" stroke="rgb(254,113,21)" stroke-width="1" opacity="1" d="M 13.5 8 Q 21.1 6.9 23 11.5 L 24 18.5 L 20.5 23 L 16.5 24 L 16.5 23 L 21 20.5 L 22 16.5 L 20 12 L 14.5 11 L 12 12 L 10 17.5 L 13 22.5 L 11.5 23 Q 6.9 21.1 8 13.5 L 11.5 9 L 13.5 8 Z " /><path fill="rgb(249,161,100)" stroke="rgb(249,161,100)" stroke-width="1" opacity="1" d="M 14.5 11 L 20 12 L 22 18 Q 19.3 19.1 20 16.5 Q 19.3 13.3 14.5 14 L 12 18 Q 9.3 19.1 10 16.5 L 12 12 L 14.5 11 Z " /><path fill="rgb(249,161,100)" stroke="rgb(249,161,100)" stroke-width="1" opacity="1" d="M 20.5 19 L 21 20.5 L 19 21.5 L 20.5 19 Z " /><path fill="rgb(251,242,235)" stroke="rgb(251,242,235)" stroke-width="1" opacity="1" d="M 19.5 20 L 18.5 22 L 19.5 20 Z " /><path fill="rgb(250,209,181)" stroke="rgb(250,209,181)" stroke-width="1" opacity="1" d="M 14.5 7 L 18 7.5 L 14.5 8 L 14.5 7 Z " /><path fill="rgb(250,209,181)" stroke="rgb(250,209,181)" stroke-width="1" opacity="1" d="M 10.5 9 L 9.5 11 L 10.5 9 Z " /><path fill="rgb(250,209,181)" stroke="rgb(250,209,181)" stroke-width="1" opacity="1" d="M 21.5 9 L 22.5 11 L 21.5 9 Z " /><path fill="rgb(250,209,181)" stroke="rgb(250,209,181)" stroke-width="1" opacity="1" d="M 7.5 14 L 8 17.5 L 7 17.5 L 7.5 14 Z " /><path fill="rgb(250,209,181)" stroke="rgb(250,209,181)" stroke-width="1" opacity="1" d="M 14.5 14 Q 19.3 13.3 20 16.5 L 17.5 15 Q 13.3 14.3 12.5 17 L 14.5 14 Z " /><path fill="rgb(250,209,181)" stroke="rgb(250,209,181)" stroke-width="1" opacity="1" d="M 24.5 14 L 25 17.5 L 24 17.5 L 24.5 14 Z " /><path fill="rgb(250,209,181)" stroke="rgb(250,209,181)" stroke-width="1" opacity="1" d="M 15.5 18 L 18 19.5 L 16.5 19 L 14.5 20 L 15.5 18 Z " /><path fill="rgb(250,209,181)" stroke="rgb(250,209,181)" stroke-width="1" opacity="1" d="M 9.5 21 L 10.5 23 L 9.5 21 Z " /><path fill="rgb(250,209,181)" stroke="rgb(250,209,181)" stroke-width="1" opacity="1" d="M 12.5 21 L 15 24.5 L 14 24.5 L 12.5 21 Z " /><path fill="rgb(250,209,181)" stroke="rgb(250,209,181)" stroke-width="1" opacity="1" d="M 22.5 21 L 21.5 23 L 22.5 21 Z " /></svg>